<?xml version="1.0" encoding="UTF-8" standalone="no"?>
<svg width="24px" height="24px" viewBox="0 0 24 24" version="1.1" xmlns="http://www.w3.org/2000/svg" xmlns:xlink="http://www.w3.org/1999/xlink" xmlns:sketch="http://www.bohemiancoding.com/sketch/ns">
    <title>eye icon</title>
    <description>Created with Sketch (http://www.bohemiancoding.com/sketch)</description>
    <defs></defs>
    <g id="Page-1" stroke="none" stroke-width="1" fill="none" fill-rule="evenodd" sketch:type="MSPage">
        <path d="M12,4 C4.063,4 -0.012,12 -0.012,12 C-0.012,12 3.063,20 12,20 C20.093,20 24.011,12.031 24.011,12.031 C24.011,12.031 20.062,4 12,4 L12,4 Z M12.018,17 C9.116,17 7.018,14.812 7.018,12 C7.018,9.187 9.116,7 12.018,7 C14.92,7 17.018,9.187 17.018,12 C17.018,14.812 14.92,17 12.018,17 L12.018,17 Z M12.0180054,10.0000032 C10.912672,10.0020032 10.0180054,10.9286703 10.0180054,12.0000041 C10.0180054,13.0706713 10.912672,14.000005 12.0180054,14.000005 C13.1233387,14.000005 14.0180054,13.0700046 14.0180054,12.0000041 C14.0180054,10.9280036 13.1233387,9.99800322 12.0180054,10.0000032 L12.0180054,10.0000032 Z" id="Shape" fill="#000000" sketch:type="MSShapeGroup"></path>
    </g>
</svg>